<?xml version="1.0" standalone="no"?>
<!DOCTYPE svg PUBLIC "-//W3C//DTD SVG 20010904//EN"
 "http://www.w3.org/TR/2001/REC-SVG-20010904/DTD/svg10.dtd">
<svg version="1.0" xmlns="http://www.w3.org/2000/svg"
 width="512.000000pt" height="512.000000pt" viewBox="0 0 512.000000 512.000000"
 preserveAspectRatio="xMidYMid meet">

<g transform="translate(0.000000,512.000000) scale(0.100000,-0.100000)"
fill="#000000" stroke="none">
<path d="M1855 4885 c-224 -61 -397 -198 -490 -389 -60 -122 -75 -186 -82
-344 -6 -131 -6 -133 -34 -152 -32 -23 -69 -94 -69 -133 l0 -27 -343 0 c-369
0 -408 -4 -505 -55 -96 -50 -171 -140 -202 -243 -20 -66 -20 -85 -18 -1538 l3
-1470 38 -76 c44 -89 116 -161 205 -205 l57 -28 2145 0 2145 0 57 28 c89 44
161 116 205 205 l38 76 3 1470 c2 1453 2 1472 -18 1538 -43 142 -169 255 -318
287 -33 7 -179 11 -392 11 l-340 0 0 27 c0 39 -37 110 -69 133 -28 19 -28 21
-34 152 -7 159 -22 222 -83 347 -39 79 -61 109 -133 181 -96 96 -178 148 -296
188 l-80 27 -670 2 c-541 2 -680 -1 -720 -12z m1380 -210 c89 -23 152 -62 233
-141 112 -112 162 -237 162 -411 l0 -73 -110 0 -110 0 0 78 c0 135 -42 228
-132 290 -90 62 -95 62 -718 62 -623 0 -629 -1 -717 -61 -91 -63 -133 -152
-133 -284 l0 -85 -110 0 -110 0 0 73 c0 40 5 100 11 133 35 188 191 363 372
415 56 16 120 18 682 18 527 1 630 -1 680 -14z m-95 -420 c50 -26 60 -51 60
-147 0 -84 -1 -87 -29 -107 -34 -24 -71 -95 -71 -134 l0 -27 -540 0 -540 0 0
27 c0 39 -37 110 -71 134 -28 20 -29 23 -29 105 0 96 8 117 53 144 31 19 55
20 585 20 471 0 557 -2 582 -15z m-1330 -520 l0 -105 -210 0 -210 0 0 105 0
105 210 0 210 0 0 -105z m1920 0 l0 -105 -210 0 -210 0 0 105 0 105 210 0 210
0 0 -105z m-2558 -177 c5 -79 18 -109 57 -130 35 -19 707 -19 742 0 39 21 52
51 57 130 l5 72 527 0 527 0 5 -72 c5 -79 18 -109 57 -130 35 -19 707 -19 742
0 39 21 52 51 57 130 l5 73 347 -3 347 -3 48 -30 c36 -22 57 -45 77 -84 l28
-53 0 -477 0 -476 -25 -52 c-18 -40 -36 -60 -72 -83 -82 -52 -1038 -528 -1094
-544 -35 -11 -93 -16 -176 -16 l-123 0 0 218 c0 119 -4 243 -10 276 -30 183
-173 326 -356 356 -77 13 -691 13 -768 0 -137 -22 -261 -113 -317 -234 -41
-88 -49 -149 -49 -400 l0 -219 -146 5 -146 4 -546 273 c-301 150 -560 282
-576 294 -15 11 -39 43 -52 71 l-24 51 0 476 0 475 26 53 c28 56 79 98 136
111 18 4 180 8 359 9 l326 1 5 -72z m1809 -1131 c24 -13 58 -43 74 -66 l30
-43 3 -254 3 -254 -106 0 -105 0 0 165 c0 269 5 265 -320 265 -325 0 -320 4
-320 -265 l0 -165 -105 0 -106 0 3 254 3 254 30 43 c17 23 50 53 74 66 44 23
46 23 421 23 375 0 377 0 421 -23z m-2109 -527 c432 -216 557 -274 613 -285
53 -11 154 -15 411 -15 l341 0 5 -92 c4 -73 11 -105 32 -150 74 -156 264 -224
421 -149 119 56 185 171 185 322 l0 69 298 0 c163 1 344 5 402 10 l105 9 552
275 c304 152 555 276 558 276 3 0 5 -357 5 -793 l0 -793 -32 -54 c-25 -40 -45
-60 -82 -79 l-49 -25 -2061 -1 c-1688 -1 -2070 2 -2109 12 -28 9 -61 28 -82
49 -68 68 -65 23 -65 895 0 434 2 789 5 789 2 0 249 -122 547 -270z m1757
-326 c76 -64 34 -184 -65 -187 -44 -1 -78 19 -99 58 -38 69 15 155 95 155 27
0 48 -8 69 -26z"/>
</g>
</svg>
